<?xml version="1.0" encoding="UTF-8"?>
<svg xmlns="http://www.w3.org/2000/svg" version="1.1" xmlns:xlink="http://www.w3.org/1999/xlink" viewBox="0 0 181.53 284.94">
  <defs>
    <style>
      .cls-1 {
        fill: url(#Degradado_sin_nombre_17-2);
      }

      .cls-1, .cls-2 {
        mix-blend-mode: overlay;
      }

      .cls-1, .cls-2, .cls-3, .cls-4 {
        stroke-width: 0px;
      }

      .cls-2 {
        fill: url(#Degradado_sin_nombre_17);
      }

      .cls-5 {
        isolation: isolate;
      }

      .cls-3 {
        fill: #4d6dbf;
      }

      .cls-4 {
        fill: url(#Degradado_sin_nombre_6);
      }
    </style>
    <linearGradient id="Degradado_sin_nombre_6" data-name="Degradado sin nombre 6" x1="137.93" y1="50.97" x2="50.14" y2="157.93" gradientUnits="userSpaceOnUse">
      <stop offset="0" stop-color="#6156c0"/>
      <stop offset="1" stop-color="#71c8cb"/>
    </linearGradient>
    <linearGradient id="Degradado_sin_nombre_17" data-name="Degradado sin nombre 17" x1="119.62" y1="133.11" x2="119.99" y2="155.54" gradientUnits="userSpaceOnUse">
      <stop offset="0" stop-color="#000"/>
      <stop offset="1" stop-color="#000" stop-opacity="0"/>
    </linearGradient>
    <linearGradient id="Degradado_sin_nombre_17-2" data-name="Degradado sin nombre 17" x1="120.22" y1="132.04" x2="119.85" y2="114.99" xlink:href="#Degradado_sin_nombre_17"/>
  </defs>
  <g class="cls-5">
    <g id="OBJECTS">
      <g>
        <path class="cls-4" d="M165.62,74.81h-41.94v-23.34c0-12.35-10.04-22.4-22.39-22.4h-33.11c-1.31,0-2.46.66-3.14,1.67-.41.61-.65,1.34-.65,2.12v41.95h-23.33c-12.34,0-22.39,10.04-22.39,22.38v33.12c0,2.09,1.7,3.79,3.79,3.79h41.93v23.33c0,12.35,10.05,22.39,22.39,22.39h33.11c2.09,0,3.79-1.69,3.79-3.79v-41.93h23.33c12.35,0,22.4-10.05,22.4-22.4v-33.1c0-2.1-1.7-3.79-3.79-3.79ZM90.39,126.52c-5.25,0-9.53-4.28-9.53-9.54s4.28-9.53,9.53-9.53c.79,0,1.57.09,2.33.28,1.29.33,2.65-.05,3.59-.99s1.33-2.31,1-3.6c-.19-.76-.28-1.54-.28-2.33,0-5.25,4.28-9.54,9.53-9.54s9.54,4.29,9.54,9.54v25.71h-25.71ZM161.83,111.7c0,8.17-6.64,14.82-14.82,14.82h-23.33v-25.71c0-9.44-7.68-17.12-17.12-17.12s-16.61,7.19-17.08,16.2c-9.02.48-16.2,7.96-16.2,17.09,0,3.85,1.28,7.41,3.43,10.27.98,1.31,2.14,2.47,3.45,3.44,2.85,2.14,6.4,3.41,10.23,3.41h25.71v38.14h-29.32c-8.17,0-14.81-6.64-14.81-14.81v-27.12c0-.92-.33-1.76-.87-2.41-.07-.1-.16-.18-.24-.27-.69-.69-1.64-1.11-2.68-1.11H26.25v-29.33c0-8.16,6.64-14.8,14.81-14.8h27.12c2.09,0,3.79-1.7,3.79-3.79v-41.95h29.32c8.16,0,14.81,6.65,14.81,14.82v27.13c0,2.09,1.7,3.79,3.79,3.79h41.94v29.31Z"/>
        <polygon class="cls-2" points="116.1 134.1 123.68 134.1 123.68 141.1 116.1 165.19 116.1 134.1"/>
        <polygon class="cls-1" points="116.1 126.52 116.1 123.68 123.68 107.93 123.68 126.52 116.1 126.52"/>
      </g>
    </g>
    <g id="TEXTS">
      <g>
        <path class="cls-3" d="M29.28,202.82v24.85h-7.63v-9.67h-5.82v9.67h-7.63v-24.85h7.63v9.14h5.82v-9.14h7.63Z"/>
        <path class="cls-3" d="M44.33,228.05c-3.49,0-6.34-1.16-8.55-3.48s-3.3-5.42-3.3-9.3,1.05-6.78,3.16-9.2c2.1-2.42,5.03-3.63,8.76-3.63,3.46,0,6.28,1.14,8.45,3.42,2.18,2.28,3.27,5.33,3.27,9.14s-1.1,7.1-3.29,9.48c-2.2,2.38-5.03,3.57-8.5,3.57ZM44.3,222.41c1.29,0,2.21-.56,2.78-1.68.56-1.12.85-3.18.85-6.16,0-4.32-1.16-6.48-3.48-6.48-2.5,0-3.75,2.46-3.75,7.39,0,4.62,1.2,6.94,3.6,6.94Z"/>
        <path class="cls-3" d="M56.78,220.48l7.08-1.27c.59,2,2.12,3,4.59,3,1.92,0,2.88-.51,2.88-1.53,0-.53-.22-.95-.66-1.25s-1.23-.56-2.38-.79c-4.36-.83-7.15-1.93-8.39-3.27-1.24-1.35-1.86-2.93-1.86-4.75,0-2.34.89-4.29,2.67-5.84s4.33-2.33,7.67-2.33c5.06,0,8.4,2.03,10.03,6.1l-6.32,1.91c-.66-1.66-1.98-2.49-3.99-2.49-1.66,0-2.49.52-2.49,1.55,0,.46.19.82.56,1.07s1.1.5,2.18.73c2.97.63,5.09,1.19,6.34,1.67,1.25.48,2.29,1.31,3.13,2.48.84,1.17,1.25,2.55,1.25,4.14,0,2.51-1.02,4.55-3.06,6.11-2.04,1.56-4.71,2.34-8.03,2.34-6.06,0-9.79-2.52-11.21-7.57Z"/>
        <path class="cls-3" d="M89.73,218.64v9.03h-7.74v-24.85h10.61c2.65,0,4.66.3,6.03.91,1.38.61,2.47,1.54,3.28,2.78.81,1.25,1.21,2.65,1.21,4.2,0,2.37-.83,4.28-2.48,5.73-1.65,1.46-3.85,2.18-6.61,2.18h-4.31ZM89.62,213.31h2.55c2.25,0,3.37-.83,3.37-2.48,0-1.55-1.04-2.33-3.11-2.33h-2.8v4.81Z"/>
        <path class="cls-3" d="M113.59,202.82v24.85h-7.63v-24.85h7.63Z"/>
        <path class="cls-3" d="M128.13,208.78v18.89h-7.23v-18.89h-5.15v-5.95h17.53v5.95h-5.15Z"/>
        <path class="cls-3" d="M147.8,227.67l-1.4-4.9h-6.66l-1.49,4.9h-6.19l7.67-24.85h8.06l7.79,24.85h-7.78ZM141.04,217.35h4.02l-2.01-7.21-2.01,7.21Z"/>
        <path class="cls-3" d="M175.3,221.57v6.1h-17.42v-24.85h7.63v18.75h9.79Z"/>
      </g>
      <g>
        <path class="cls-3" d="M7.91,263.87v-3.08c.35.31.77.59,1.27.84.49.25,1.01.46,1.55.63.54.17,1.09.3,1.64.4.55.09,1.06.14,1.52.14,1.6,0,2.8-.3,3.6-.89.79-.6,1.19-1.45,1.19-2.57,0-.6-.13-1.12-.4-1.57-.26-.44-.63-.85-1.1-1.22s-1.02-.72-1.65-1.06c-.64-.34-1.32-.69-2.06-1.06-.78-.39-1.5-.79-2.17-1.2-.67-.4-1.26-.85-1.75-1.33-.5-.49-.89-1.04-1.17-1.65s-.43-1.34-.43-2.17c0-1.01.22-1.9.67-2.65.45-.75,1.03-1.37,1.75-1.86.73-.49,1.55-.85,2.48-1.09.93-.24,1.87-.36,2.83-.36,2.19,0,3.79.26,4.8.79v2.94c-1.32-.91-3-1.37-5.06-1.37-.57,0-1.14.06-1.71.18s-1.08.31-1.52.58c-.45.27-.81.62-1.09,1.04-.28.42-.42.94-.42,1.55,0,.57.11,1.06.32,1.47.21.42.53.79.94,1.13.41.34.92.67,1.51.99.6.32,1.28.67,2.06,1.06.8.39,1.55.81,2.27,1.24s1.34.92,1.88,1.44c.54.53.97,1.11,1.28,1.75.32.64.47,1.38.47,2.21,0,1.1-.21,2.03-.64,2.79-.43.76-1.01,1.38-1.74,1.86s-1.57.82-2.52,1.03c-.95.21-1.96.32-3.01.32-.35,0-.79-.03-1.3-.09-.52-.06-1.05-.14-1.58-.25-.54-.11-1.05-.24-1.53-.4-.48-.16-.87-.34-1.16-.54Z"/>
        <path class="cls-3" d="M43.09,264.77h-2.89l-2.36-6.24h-9.44l-2.22,6.24h-2.9l8.54-22.27h2.7l8.57,22.27ZM36.99,256.18l-3.49-9.49c-.11-.31-.23-.81-.34-1.49h-.06c-.1.63-.22,1.13-.36,1.49l-3.46,9.49h7.72Z"/>
        <path class="cls-3" d="M62.66,255.76c0,6.25-2.82,9.38-8.46,9.38s-8.11-3.01-8.11-9.02v-13.62h2.61v13.45c0,4.57,1.93,6.85,5.78,6.85s5.58-2.21,5.58-6.62v-13.68h2.61v13.26ZM58.36,235.37l-4.07,5.09h-1.97l3.46-5.09h2.58Z"/>
        <path class="cls-3" d="M68.22,264.77v-22.27h6.15c7.85,0,11.77,3.62,11.77,10.86,0,3.44-1.09,6.2-3.27,8.29-2.18,2.09-5.1,3.13-8.75,3.13h-5.9ZM70.83,244.86v17.55h3.32c2.92,0,5.19-.78,6.82-2.35s2.44-3.78,2.44-6.65c0-5.71-3.03-8.56-9.1-8.56h-3.48Z"/>
        <path class="cls-3" d="M102.33,264.77h-11.8v-22.27h11.31v2.36h-8.7v7.41h8.04v2.35h-8.04v7.8h9.19v2.36Z"/>
        <path class="cls-3" d="M115.33,264.77v-22.27h6.34c1.93,0,3.45.47,4.58,1.41s1.69,2.17,1.69,3.68c0,1.26-.34,2.36-1.02,3.29-.68.93-1.63,1.59-2.83,1.99v.06c1.5.18,2.7.74,3.6,1.7.9.96,1.35,2.2,1.35,3.74,0,1.91-.68,3.45-2.05,4.63s-3.09,1.77-5.17,1.77h-6.49ZM117.94,244.86v7.19h2.67c1.43,0,2.55-.34,3.37-1.03s1.23-1.66,1.23-2.91c0-2.16-1.42-3.25-4.27-3.25h-3ZM117.94,254.4v8.01h3.54c1.53,0,2.72-.36,3.56-1.09.84-.72,1.27-1.72,1.27-2.98,0-2.63-1.79-3.95-5.37-3.95h-3Z"/>
        <path class="cls-3" d="M145.37,264.77h-11.8v-22.27h11.31v2.36h-8.7v7.41h8.04v2.35h-8.04v7.8h9.19v2.36Z"/>
        <path class="cls-3" d="M172.36,264.77h-2.59v-14.94c0-1.18.07-2.62.22-4.33h-.06c-.25,1-.47,1.72-.67,2.16l-7.61,17.12h-1.27l-7.6-16.99c-.22-.5-.44-1.26-.67-2.28h-.06c.08.89.12,2.35.12,4.36v14.91h-2.52v-22.27h3.45l6.83,15.53c.53,1.19.87,2.08,1.02,2.67h.09c.45-1.22.8-2.13,1.07-2.73l6.97-15.47h3.26v22.27Z"/>
      </g>
    </g>
  </g>
</svg>